<?xml version="1.0" standalone="no"?>
<!DOCTYPE svg PUBLIC "-//W3C//DTD SVG 1.1//EN" "http://www.w3.org/Graphics/SVG/1.1/DTD/svg11.dtd" >
<svg xmlns="http://www.w3.org/2000/svg" xmlns:xlink="http://www.w3.org/1999/xlink" version="1.1">
<metadata>
Created by FontForge 20170731 at Tue Nov 12 16:11:46 2019
 By Aleksey,,,
Copyright (c) 2002, Linotype GmbH
</metadata>
<defs>
<font id="HelveticaNeueLT-96BlkIt" horiz-adv-x="630" >
  <font-face 
    font-family="Helvetica Neue LT Black"
    font-weight="900"
    font-style="italic"
    font-stretch="normal"
    units-per-em="1000"
    panose-1="2 0 10 3 0 0 0 0 0 0"
    ascent="800"
    descent="-200"
    x-height="519"
    cap-height="714"
    bbox="-140 -233 1153 956"
    underline-thickness="50"
    underline-position="-150"
    unicode-range="U+000D-2122"
  />
<missing-glyph horiz-adv-x="512" 
d="M512 718h-512v-718h512v718zM462 50h-412v617h412v-617zM225 234h46q0 52 6 72q6 19 43 52q37 34 50 60t13 60q0 59 -35 95t-89 36q-56 0 -92 -34t-43 -103l50 -8q11 95 82 95q31 0 53.5 -24.5t22.5 -60.5q0 -20 -9.5 -37t-40.5 -46q-31 -31 -46 -59q-13 -25 -13 -81z
M222 117h56v67h-56v-67z" />
    <glyph glyph-name=".notdef" horiz-adv-x="512" 
d="M512 718h-512v-718h512v718zM462 50h-412v617h412v-617zM225 234h46q0 52 6 72q6 19 43 52q37 34 50 60t13 60q0 59 -35 95t-89 36q-56 0 -92 -34t-43 -103l50 -8q11 95 82 95q31 0 53.5 -24.5t22.5 -60.5q0 -20 -9.5 -37t-40.5 -46q-31 -31 -46 -59q-13 -25 -13 -81z
M222 117h56v67h-56v-67z" />
    <glyph glyph-name="glyph1" horiz-adv-x="0" 
 />
    <glyph glyph-name="glyph1" horiz-adv-x="0" 
 />
    <glyph glyph-name="uni000D" unicode="&#xd;" horiz-adv-x="1000" 
 />
    <glyph glyph-name="space" unicode=" " horiz-adv-x="334" 
 />
    <glyph glyph-name="exclam" unicode="!" horiz-adv-x="334" 
d="M98 251l8 298l35 165h204l-34 -161l-119 -302h-94zM-7 0l41 198h205l-41 -198h-205z" />
    <glyph glyph-name="quotedbl" unicode="&#x22;" horiz-adv-x="519" 
d="M287 335v379h153v-379h-153zM79 335v379h153v-379h-153z" />
    <glyph glyph-name="numbersign" unicode="#" horiz-adv-x="668" 
d="M121 0l26 185h-86l16 117h86l13 96h-85l16 117h85l25 181h133l-25 -181h71l25 181h133l-25 -181h78l-16 -117h-78l-13 -96h77l-16 -117h-77l-26 -185h-133l26 185h-71l-26 -185h-133zM296 302h71l13 96h-71z" />
    <glyph glyph-name="dollar" unicode="$" horiz-adv-x="668" 
d="M-13 235h220q1 -35 18 -58.5t44 -29.5l26 134l-39 12q-43 12 -69.5 23t-56 33t-44 58.5t-14.5 87.5q0 75 46 130.5t112 80.5t138 25h18l16 81h49l-17 -84q220 -29 220 -232h-203q3 58 -50 72l-23 -119l71 -20q71 -19 120.5 -66.5t49.5 -131.5q0 -55 -20.5 -98.5
t-53.5 -71t-77.5 -45.5t-90 -25.5t-93.5 -7.5l-20 -96h-49l20 99q-116 11 -182 75.5t-66 173.5zM331 463l21 110q-29 0 -50.5 -15.5t-21.5 -45.5q0 -18 11.5 -28.5t39.5 -20.5zM317 141q40 0 67 14t27 45q0 42 -70 66z" />
    <glyph glyph-name="percent" unicode="%" horiz-adv-x="1000" 
d="M194 -26l482 748h126l-482 -748h-126zM227 326q-72 0 -116 37t-44 109q0 104 56 168t151 64q72 0 116 -37t44 -109q0 -104 -56 -168t-151 -64zM225 413q22 0 39 16.5t25.5 42t13 49t4.5 43.5q0 53 -31 53q-22 0 -39 -16.5t-25.5 -42t-13 -49t-4.5 -43.5q0 -53 31 -53z
M565 138q0 104 56 168t151 64q72 0 116 -37t44 -109q0 -104 -56 -168t-151 -64q-72 0 -116 37t-44 109zM692 132q0 -53 31 -53q22 0 39 16.5t25.5 42t13 49t4.5 43.5q0 53 -31 53q-22 0 -39 -16.5t-25.5 -42t-13 -49t-4.5 -43.5z" />
    <glyph glyph-name="ampersand" unicode="&#x26;" horiz-adv-x="741" 
d="M23 200q0 83 52 139t137 85l-2 2q-2 3 -5.5 8t-8 12t-8.5 16.5t-7.5 20.5t-5.5 25t-2 28q0 19 4.5 40t19 50t37.5 51t66 38t99 16q83 0 142 -51.5t59 -130.5q0 -65 -43.5 -116t-109.5 -77l46 -71q19 21 39 63h171q-18 -99 -120 -201l95 -147h-215l-22 37
q-62 -54 -178 -54q-120 0 -180 63t-60 154zM374 471q73 37 73 82q0 19 -13 32t-32 13q-22 0 -40.5 -12t-18.5 -41q0 -26 31 -74zM208 203q0 -19 16.5 -40.5t43.5 -21.5q41 0 89 40l-63 108q-48 -18 -67 -37t-19 -49z" />
    <glyph glyph-name="quotesingle" unicode="'" horiz-adv-x="296" 
d="M72 335v379h153v-379h-153z" />
    <glyph glyph-name="parenleft" unicode="(" horiz-adv-x="315" 
d="M9 111q0 179 50 328t155 292h175q-94 -140 -144.5 -305t-50.5 -338q0 -134 21 -256h-162q-44 143 -44 279z" />
    <glyph glyph-name="parenright" unicode=")" horiz-adv-x="315" 
d="M67 -168h-175q94 141 144.5 305.5t50.5 332.5q0 139 -21 261h162q44 -143 44 -284q0 -175 -49.5 -322t-155.5 -293z" />
    <glyph glyph-name="asterisk" unicode="*" horiz-adv-x="463" 
d="M154 311l-80 76l103 101l-123 55l46 98l120 -62l14 135h109l-24 -147l131 33l23 -108l-130 -23l63 -111l-95 -55l-62 116z" />
    <glyph glyph-name="plus" unicode="+" horiz-adv-x="600" 
d="M48 176v153h176v176h153v-176h176v-153h-176v-176h-153v176h-176z" />
    <glyph glyph-name="comma" unicode="," horiz-adv-x="334" 
d="M-7 0l40 198h204l-34 -174q-21 -107 -78 -156t-171 -49l20 87q48 6 71 26.5t31 67.5h-83z" />
    <glyph glyph-name="hyphen" unicode="-" horiz-adv-x="407" 
d="M14 185l32 164h315l-32 -164h-315z" />
    <glyph glyph-name="period" unicode="." horiz-adv-x="334" 
d="M-8 0l41 198h204l-41 -198h-204z" />
    <glyph glyph-name="slash" unicode="/" horiz-adv-x="426" 
d="M-73 -17l389 748h185l-389 -748h-185z" />
    <glyph glyph-name="zero" unicode="0" horiz-adv-x="668" 
d="M30 262q0 196 103 319t243 123q120 0 191.5 -71.5t71.5 -202.5q0 -44 -8.5 -95t-33 -113.5t-61.5 -112t-102 -83.5t-147 -34q-50 0 -94.5 15.5t-81.5 46.5t-59 84.5t-22 123.5zM298 145q66 0 111 90.5t45 220.5q0 47 -21.5 71t-58.5 24q-46 0 -80 -37t-49.5 -91
t-22.5 -97t-7 -71q0 -110 83 -110z" />
    <glyph glyph-name="one" unicode="1" horiz-adv-x="668" 
d="M205 0l87 418h-161l31 144q91 0 146 28t87 106h161l-143 -696h-208z" />
    <glyph glyph-name="two" unicode="2" horiz-adv-x="668" 
d="M-28 0q9 72 34 124.5t75 92t82.5 58t105.5 52.5q18 9 27 13q87 41 118 66.5t31 69.5q0 27 -20 48.5t-60 21.5q-54 0 -83 -34t-29 -85h-186q15 137 98 207t213 70q72 0 130 -21t96.5 -72t38.5 -125q0 -48 -18.5 -88.5t-44.5 -67t-69 -52t-77.5 -39.5t-85 -34.5
t-76.5 -32.5v-2h328l-36 -170h-592z" />
    <glyph glyph-name="three" unicode="3" horiz-adv-x="668" 
d="M11 202q0 37 4 58h186q-4 -52 19 -80q24 -30 75 -30q45 0 75 23t30 65q0 62 -93 62h-39l26 127h42q114 0 114 62q0 29 -22.5 45.5t-60.5 16.5q-43 0 -71 -23t-34 -65h-183q17 120 98 180.5t206 60.5q48 0 89.5 -8.5t79.5 -28t60.5 -57t22.5 -88.5q0 -58 -39 -101.5
t-96 -51.5v-2q44 -6 71 -45.5t27 -89.5q0 -240 -311 -240q-75 0 -131.5 19.5t-86.5 52t-44 67t-14 71.5z" />
    <glyph glyph-name="four" unicode="4" horiz-adv-x="668" 
d="M-8 138l38 186l396 372h198l-80 -388h90l-32 -170h-91l-31 -138h-198l29 138h-319zM193 308h159l43 198h-2z" />
    <glyph glyph-name="five" unicode="5" horiz-adv-x="668" 
d="M9 219h190q7 -69 98 -69q59 0 90 27.5t31 73.5q0 45 -25.5 67t-69.5 22q-77 0 -99 -45h-180l131 401h471l-36 -170h-310l-31 -91h2q36 38 130 38q91 0 149 -54.5t58 -144.5q0 -32 -7 -65.5t-28.5 -74t-55.5 -71t-93.5 -51t-137.5 -20.5q-148 0 -216 67t-61 160z" />
    <glyph glyph-name="six" unicode="6" horiz-adv-x="668" 
d="M40 277q0 44 8.5 94.5t34 111.5t64 108.5t105 80t150.5 32.5q65 0 118 -17t92.5 -62.5t41.5 -114.5h-189q-7 28 -24 39t-50 11q-103 0 -148 -157h2q54 68 154 68q88 0 148 -54.5t60 -141.5q0 -127 -83 -205t-211 -78q-138 0 -205.5 78t-67.5 207zM225 237q0 -39 25 -63
t67 -24q49 0 77 28t28 71q0 89 -90 89q-41 0 -74 -26t-33 -75z" />
    <glyph glyph-name="seven" unicode="7" horiz-adv-x="668" 
d="M88 0q48 260 314 526h-311l36 170h534l-35 -167q-105 -83 -194 -219t-124 -310h-220z" />
    <glyph glyph-name="eight" unicode="8" horiz-adv-x="668" 
d="M3 192q0 74 51.5 120.5t127.5 55.5v2q-44 14 -67.5 48.5t-23.5 80.5q0 37 14.5 70.5t46 65t90.5 50.5t139 19q38 0 72 -4.5t69.5 -17t61 -32t42 -51.5t16.5 -74q0 -61 -39.5 -106.5t-100.5 -53.5v1l-2 -2q54 -11 85.5 -50.5t31.5 -96.5q0 -22 -5 -44.5t-17.5 -49t-37 -49
t-59.5 -41.5t-89 -30t-122 -11q-131 0 -207.5 50.5t-76.5 149.5zM359 420q34 0 58.5 8t35 21t15 24.5t4.5 22.5q0 38 -28.5 56.5t-68.5 18.5q-46 0 -80 -19.5t-34 -62.5q0 -27 22 -48t76 -21zM193 212q0 -43 35 -59.5t78 -16.5q53 0 87 19.5t34 57.5v12q0 28 -25 53t-80 25
q-53 0 -91 -22t-38 -69z" />
    <glyph glyph-name="nine" unicode="9" horiz-adv-x="668" 
d="M12 183h188q6 -25 22 -37q14 -10 53 -10q58 0 95.5 46t51.5 109h-2q-18 -29 -64 -48.5t-95 -19.5q-89 0 -146 57t-57 145q0 125 87 202t213 77q122 0 194.5 -76t72.5 -219q0 -50 -10.5 -103.5t-36.5 -110.5t-65 -101.5t-101.5 -73t-139.5 -28.5q-69 0 -123.5 16.5
t-94.5 61t-42 113.5zM335 356q54 0 79.5 33.5t25.5 64.5q0 92 -93 92q-52 0 -78 -30t-26 -73q0 -16 5 -33t27.5 -35.5t59.5 -18.5z" />
    <glyph glyph-name="colon" unicode=":" horiz-adv-x="334" 
d="M56 307l41 198h205l-41 -198h-205zM-8 0l41 198h205l-41 -198h-205z" />
    <glyph glyph-name="semicolon" unicode=";" horiz-adv-x="334" 
d="M56 307l41 198h205l-41 -198h-205zM-7 0l40 198h205l-35 -174q-22 -107 -79 -156t-170 -49l20 87q48 6 71 26.5t31 67.5h-83z" />
    <glyph glyph-name="less" unicode="&#x3c;" horiz-adv-x="600" 
d="M48 189v126l505 198v-161l-272 -99l272 -100v-161z" />
    <glyph glyph-name="equal" unicode="=" horiz-adv-x="600" 
d="M48 297v153h505v-153h-505zM48 56v153h505v-153h-505z" />
    <glyph glyph-name="greater" unicode="&#x3e;" horiz-adv-x="600" 
d="M48 -8v161l272 99l-272 100v161l505 -197v-126z" />
    <glyph glyph-name="question" unicode="?" horiz-adv-x="574" 
d="M156 251q10 74 38.5 118.5t93.5 70.5q34 14 43 18t26 14t21.5 19.5t4.5 23.5q0 11 -3.5 21t-18 20.5t-38.5 10.5q-41 0 -59.5 -27.5t-18.5 -55.5h-201q31 247 299 247q248 0 248 -180q0 -44 -9.5 -76t-30.5 -53.5t-33 -29.5t-39 -23q-15 -8 -39.5 -18.5t-39.5 -17.5
t-30.5 -18t-23 -27t-7.5 -37h-183zM95 0l41 198h205l-41 -198h-205z" />
    <glyph glyph-name="at" unicode="@" horiz-adv-x="800" 
d="M24 356q0 175 111 275t282 100q164 0 261 -84.5t97 -213.5q0 -66 -21.5 -120t-52.5 -85.5t-68.5 -53t-67.5 -29.5t-52 -8q-53 0 -57 50h-2q-33 -50 -101 -50q-75 0 -120.5 52t-45.5 129q0 100 59.5 168.5t148.5 68.5q79 0 122 -59l10 41h95l-47 -239q-4 -15 -4 -32
q0 -24 14 -24q32 0 59.5 41t27.5 119q0 113 -70.5 169.5t-187.5 56.5q-123 0 -205 -77.5t-82 -194.5q0 -122 82.5 -196t200.5 -74q125 0 204 57h114q-108 -160 -318 -160q-166 0 -276 105t-110 268zM320 334q0 -30 18.5 -52.5t47.5 -22.5q39 0 67 30t28 68q0 33 -20.5 54.5
t-51.5 21.5q-36 0 -62.5 -30t-26.5 -69z" />
    <glyph glyph-name="A" unicode="A" horiz-adv-x="722" 
d="M-80 0l413 714h216l111 -714h-216l-12 102h-233l-55 -102h-224zM279 255h137l-24 214h-2z" />
    <glyph glyph-name="B" unicode="B" horiz-adv-x="741" 
d="M-13 0l148 714h367q113 0 163 -39t50 -118q0 -137 -131 -172h-1v-2q49 -11 78.5 -51.5t29.5 -91.5q0 -121 -83 -180.5t-211 -59.5h-410zM292 436h124q32 0 55.5 13.5t23.5 43.5t-17.5 40.5t-50.5 10.5h-113zM237 170h141q37 0 65 16t28 56q0 36 -22.5 48.5t-62.5 12.5
h-121z" />
    <glyph glyph-name="C" unicode="C" horiz-adv-x="759" 
d="M35 308q0 117 45 212t134.5 153t207.5 58q134 0 217.5 -66.5t87.5 -216.5h-208q5 105 -98 105q-57 0 -96.5 -40.5t-54.5 -92.5t-15 -108q0 -151 115 -151q96 0 122 110h216q-4 -23 -11 -47t-23 -59.5t-43 -65.5t-64.5 -57.5t-95.5 -43t-129 -15.5q-151 0 -229 88t-78 237
z" />
    <glyph glyph-name="D" unicode="D" horiz-adv-x="778" 
d="M-17 0l149 714h329q51 0 99 -16t91 -49t69 -91.5t26 -134.5q0 -184 -108.5 -303.5t-301.5 -119.5h-353zM242 183h106q51 0 88 23.5t55 60t26 69.5t8 62q0 75 -33.5 104t-95.5 29h-81z" />
    <glyph glyph-name="E" unicode="E" horiz-adv-x="704" 
d="M-13 0l149 714h590l-37 -183h-370l-19 -89h343l-35 -170h-344l-19 -89h378l-38 -183h-598z" />
    <glyph glyph-name="F" unicode="F" 
d="M-13 0l149 714h551l-38 -183h-331l-19 -89h281l-35 -170h-281l-57 -272h-220z" />
    <glyph glyph-name="G" unicode="G" horiz-adv-x="778" 
d="M35 284q0 86 25 164.5t73.5 142.5t128.5 102t181 38q129 0 211.5 -67t84.5 -200h-208q-9 89 -101 89q-84 0 -129.5 -75t-45.5 -177q0 -140 125 -140q100 0 131 79h-100l32 153h292l-82 -393h-139l6 69l-2 2q-66 -88 -193 -88q-71 0 -125.5 23t-85 56.5t-49 77.5t-24.5 78
t-6 66z" />
    <glyph glyph-name="H" unicode="H" horiz-adv-x="759" 
d="M-13 0l149 714h220l-52 -248h201l52 248h220l-149 -714h-220l59 283h-201l-59 -283h-220z" />
    <glyph glyph-name="I" unicode="I" horiz-adv-x="333" 
d="M-13 0l148 714h220l-148 -714h-220z" />
    <glyph glyph-name="J" unicode="J" horiz-adv-x="611" 
d="M1 170q0 65 18 130h197q-1 -6 -9 -43.5t-8 -53.5q0 -50 47 -50q28 0 41 14t19 44l107 503h220l-104 -491q-27 -125 -95.5 -182.5t-197.5 -57.5q-124 0 -179.5 54t-55.5 133z" />
    <glyph glyph-name="K" unicode="K" horiz-adv-x="759" 
d="M-11 0l148 714h220l-49 -235l2 -2l244 237h286l-341 -294l206 -420h-247l-131 277l-75 -68l-43 -209h-220z" />
    <glyph glyph-name="L" unicode="L" horiz-adv-x="611" 
d="M-11 0l148 714h220l-110 -531h316l-38 -183h-536z" />
    <glyph glyph-name="M" unicode="M" horiz-adv-x="944" 
d="M-13 0l149 714h307l9 -384h2l195 384h313l-152 -714h-204l110 492h-2l-234 -492h-163l-26 492h-2l-98 -492h-204z" />
    <glyph glyph-name="N" unicode="N" horiz-adv-x="759" 
d="M-15 0l148 714h218l134 -390h2l80 390h209l-150 -714h-216l-131 400h-2l-83 -400h-209z" />
    <glyph glyph-name="O" unicode="O" horiz-adv-x="796" 
d="M35 296q0 184 111.5 309.5t289.5 125.5q156 0 240.5 -77t84.5 -236q0 -184 -111.5 -309.5t-289.5 -125.5q-154 0 -239.5 80.5t-85.5 232.5zM255 291q0 -56 26 -93t85 -37q62 0 103.5 45t56.5 101t15 116q0 56 -26 93t-85 37q-62 0 -103.5 -45t-56.5 -101t-15 -116z" />
    <glyph glyph-name="P" unicode="P" horiz-adv-x="704" 
d="M-13 0l149 714h354q102 0 159 -57.5t57 -172.5q0 -111 -86 -189.5t-223 -78.5h-148l-45 -216h-217zM316 531l-31 -145h84q117 0 117 81q0 64 -95 64h-75z" />
    <glyph glyph-name="Q" unicode="Q" horiz-adv-x="796" 
d="M700 -2l-113 -82l-75 96q-72 -29 -152 -29q-154 0 -239.5 80.5t-85.5 232.5q0 184 111.5 309.5t289.5 125.5q156 0 240.5 -77t84.5 -236q0 -100 -34 -185.5t-97 -144.5zM344 227l112 84l47 -59q38 72 38 171q0 56 -26 93t-85 37q-62 0 -103.5 -45t-56.5 -101t-15 -116
q0 -56 26 -93t85 -37q12 0 27 3z" />
    <glyph glyph-name="R" unicode="R" horiz-adv-x="741" 
d="M-13 0l148 714h362q111 0 172 -41t61 -146q0 -78 -45 -131t-122 -66v-2q31 -9 48 -32t21.5 -49t4.5 -65q0 -17 -1 -50.5t-1 -49.5q0 -54 12 -82h-210q-9 21 -9 70q0 17 5.5 56.5t5.5 57.5q0 29 -22.5 47t-66.5 18h-95l-52 -249h-216zM317 544l-30 -142h116q52 0 79.5 23
t27.5 57q0 24 -17.5 43t-56.5 19h-119z" />
    <glyph glyph-name="S" unicode="S" horiz-adv-x="667" 
d="M653 498h-203q1 39 -25 59q-21 16 -64 16q-85 0 -85 -58q0 -19 19 -32t42.5 -19.5t60 -15t55.5 -15.5q166 -59 166 -197q0 -82 -49 -141t-120.5 -85.5t-152.5 -26.5q-87 0 -154.5 25.5t-110 85t-38.5 146.5h213q0 -54 27 -81q21 -18 81 -18q37 0 66.5 18t29.5 51
q0 15 -7 25.5t-26.5 20t-34 14.5t-50 15.5t-54.5 16.5q-79 26 -125 69.5t-46 124.5q0 76 46 131.5t112 79.5t142 24q60 0 110 -12t90.5 -38t63 -72.5t21.5 -110.5z" />
    <glyph glyph-name="T" unicode="T" horiz-adv-x="648" 
d="M137 0l110 531h-198l38 183h616l-38 -183h-198l-110 -531h-220z" />
    <glyph glyph-name="U" unicode="U" horiz-adv-x="759" 
d="M780 714l-98 -472q-27 -131 -119 -195t-231 -64q-151 0 -226.5 62t-75.5 156q0 21 7 58l95 455h220l-81 -390q-12 -58 -12 -80q0 -83 84 -83q61 0 90.5 44t44.5 117l82 392h220z" />
    <glyph glyph-name="V" unicode="V" horiz-adv-x="648" 
d="M730 714l-356 -714h-247l-61 714h215l33 -418h2l187 418h227z" />
    <glyph glyph-name="W" unicode="W" horiz-adv-x="963" 
d="M1042 714l-343 -714h-212v370h-2l-155 -370h-212l-52 714h216v-415h2l171 415h192v-415h2l169 415h224z" />
    <glyph glyph-name="X" unicode="X" horiz-adv-x="741" 
d="M-85 0l338 378l-164 336h239l69 -186l142 186h261l-297 -336l173 -378h-247l-79 200l-165 -200h-270z" />
    <glyph glyph-name="Y" unicode="Y" horiz-adv-x="667" 
d="M148 0l54 262l-153 452h221l68 -266l174 266h258l-348 -450l-54 -264h-220z" />
    <glyph glyph-name="Z" unicode="Z" horiz-adv-x="685" 
d="M-49 0l37 183l398 348h-304l38 183h603l-35 -183l-409 -348h345l-38 -183h-635z" />
    <glyph glyph-name="bracketleft" unicode="[" horiz-adv-x="407" 
d="M-38 -168l187 899h332l-32 -153h-150l-123 -593h150l-32 -153h-332z" />
    <glyph glyph-name="backslash" unicode="\" horiz-adv-x="426" 
d="M110 731l389 -748h-185l-389 748h185z" />
    <glyph glyph-name="bracketright" unicode="]" horiz-adv-x="407" 
d="M426 731l-187 -899h-332l32 153h150l123 593h-150l32 153h332z" />
    <glyph glyph-name="asciicircum" unicode="^" horiz-adv-x="600" 
d="M65 331l174 365h122l174 -365h-153l-82 189l-82 -189h-153z" />
    <glyph glyph-name="underscore" unicode="_" horiz-adv-x="500" 
d="M0 -125v50h500v-50h-500z" />
    <glyph glyph-name="grave" unicode="`" horiz-adv-x="278" 
d="M215 718l104 -144h-132l-181 144h209z" />
    <glyph glyph-name="a" unicode="a" 
d="M243 362h-186q12 50 36.5 84.5t61 52.5t76 25.5t91.5 7.5q252 0 252 -138q0 -46 -31.5 -192t-31.5 -156q0 -25 8 -46h-194q-8 27 -7 50h-2q-24 -30 -69 -46.5t-91 -16.5q-73 0 -120.5 34t-47.5 104q0 96 64 136t187 49q6 0 25 0.5t28.5 1.5t26.5 3t26 6t19.5 10t15 16
t4.5 23q0 45 -62 45q-64 0 -79 -53zM186 149q0 -45 63 -45q48 0 72 32t34 94q-34 -17 -105 -23q-64 -6 -64 -58z" />
    <glyph glyph-name="b" unicode="b" horiz-adv-x="648" 
d="M-18 0l148 714h198l-51 -246h2q49 64 144 64q29 0 57.5 -9t57 -30.5t46 -65t17.5 -104.5q0 -32 -6 -70.5t-23.5 -87t-45 -87t-75.5 -65t-110 -26.5q-123 0 -154 80h-2l-15 -67h-188zM329 388q-37 0 -62.5 -31t-35 -69t-9.5 -77q0 -32 18 -56t49 -24q55 0 84.5 53
t29.5 119q0 41 -18.5 64t-55.5 21z" />
    <glyph glyph-name="c" unicode="c" horiz-adv-x="593" 
d="M571 322h-190v7q0 30 -14.5 44.5t-49.5 14.5q-39 0 -65.5 -31.5t-35 -66t-8.5 -64.5q0 -95 68 -95q60 0 87 76h190q-52 -220 -279 -220q-63 0 -111.5 15.5t-76.5 39.5t-46 57t-24 63t-6 62q0 136 84 222t229 86q112 0 180 -51t68 -153v-6z" />
    <glyph glyph-name="d" unicode="d" horiz-adv-x="648" 
d="M328 0l12 59h-2q-50 -72 -138 -72q-48 0 -84 16.5t-55.5 39.5t-31.5 54t-15.5 54.5t-3.5 46.5q0 148 71 241t187 93q105 0 150 -77l54 259h198l-148 -714h-194zM281 131q51 0 77 52t26 109q0 96 -71 96q-54 0 -79.5 -52.5t-25.5 -119.5q0 -38 18 -61.5t55 -23.5z" />
    <glyph glyph-name="e" unicode="e" 
d="M354 151h190q-22 -55 -46 -81q-73 -83 -230 -83q-131 0 -194.5 63.5t-63.5 165.5q0 84 30 148.5t78 99t99.5 51.5t103.5 17q45 0 88.5 -13t81.5 -39t61 -71.5t23 -103.5q0 -54 -10 -90h-370q0 -101 81 -101q57 0 78 37zM212 318h176q2 14 2 17q0 31 -19 50.5t-56 19.5
q-80 0 -103 -87z" />
    <glyph glyph-name="f" unicode="f" horiz-adv-x="389" 
d="M12 0l82 397h-82l27 122h80q24 115 73.5 155t166.5 40q46 0 104 -5l-28 -131q-19 3 -53 3q-29 0 -43 -13.5t-22 -48.5h101l-26 -122h-100l-82 -397h-198z" />
    <glyph glyph-name="g" unicode="g" 
d="M611 519l-88 -429q-8 -40 -13.5 -62.5t-17 -55.5t-25 -51.5t-36 -40.5t-51.5 -33.5t-71 -19.5t-94 -8q-26 0 -49.5 2t-62 11.5t-65.5 26.5t-46 51.5t-17 81.5h196q0 -32 15 -44q14 -12 47 -12q22 0 37.5 7.5t24.5 22.5t13.5 28t9.5 34l12 55h-2q-46 -52 -124 -52
q-93 0 -148 55t-55 147q0 119 67.5 209t182.5 90q113 0 154 -80h2l13 67h191zM303 388q-52 0 -78 -46t-26 -101q0 -37 17.5 -60t50.5 -23q32 0 56 17.5t34.5 44.5t15 48.5t4.5 38.5q0 16 -2 27t-8.5 25t-22.5 21.5t-41 7.5z" />
    <glyph glyph-name="h" unicode="h" horiz-adv-x="648" 
d="M-18 0l147 714h198l-54 -261h2q26 37 68.5 58t85.5 21q75 0 122 -34t47 -106q0 -31 -14 -99l-63 -293h-198l51 238q16 71 16 86q0 24 -15.5 37t-40.5 13q-75 0 -96 -99l-58 -275h-198z" />
    <glyph glyph-name="i" unicode="i" horiz-adv-x="315" 
d="M333 714l-29 -139h-198l29 139h198zM-13 0l108 519h198l-108 -519h-198z" />
    <glyph glyph-name="j" unicode="j" horiz-adv-x="315" 
d="M333 714l-29 -139h-198l29 139h198zM292 519l-109 -513q-21 -98 -70.5 -136t-160.5 -38q-46 0 -92 3l33 154q17 -4 39 -4q12 0 21.5 2t16 8.5t10.5 11.5t8 17.5t6 20.5t5.5 26.5t5.5 29.5l89 418h198z" />
    <glyph glyph-name="k" unicode="k" horiz-adv-x="611" 
d="M-13 0l148 714h198l-71 -347h2l146 152h237l-233 -209l132 -310h-215l-70 188l-45 -40l-31 -148h-198z" />
    <glyph glyph-name="l" unicode="l" horiz-adv-x="315" 
d="M-13 0l148 714h198l-148 -714h-198z" />
    <glyph glyph-name="m" unicode="m" horiz-adv-x="963" 
d="M-18 0l108 519h192l-14 -68h2q66 81 163 81q123 0 140 -86q67 86 170 86q166 0 166 -154q0 -27 -12 -82l-63 -296h-198l53 248q12 64 12 76q0 50 -51 50q-63 0 -75 -60l-68 -314h-198l60 278q8 36 8 48q0 48 -50 48q-68 0 -83 -77l-64 -297h-198z" />
    <glyph glyph-name="n" unicode="n" horiz-adv-x="648" 
d="M-18 0l108 519h191l-15 -66h2q66 79 161 79q75 0 122 -34t47 -106q0 -31 -14 -99l-63 -293h-198l51 238q16 71 16 86q0 24 -15.5 37t-40.5 13q-75 0 -96 -99l-58 -275h-198z" />
    <glyph glyph-name="o" unicode="o" 
d="M10 230q0 130 83.5 216t236.5 86q118 0 185 -56.5t67 -170.5q0 -54 -16 -106.5t-50 -101.5t-98 -79.5t-149 -30.5q-116 0 -187.5 59.5t-71.5 183.5zM208 215q0 -84 70 -84q51 0 78.5 56t27.5 104q0 50 -15.5 73.5t-53.5 23.5q-36 0 -62 -33.5t-35.5 -70.5t-9.5 -69z" />
    <glyph glyph-name="p" unicode="p" horiz-adv-x="648" 
d="M-53 -168l144 687h192l-12 -59h2q53 72 139 72q52 0 90.5 -20t59 -52.5t30 -68t9.5 -72.5q0 -60 -15 -117.5t-45 -106.5t-80 -78.5t-113 -29.5q-52 0 -89.5 14.5t-66.5 61.5l-47 -231h-198zM299 131q54 0 79 51.5t25 113.5q0 44 -15.5 68t-56.5 24q-31 0 -53 -20
t-32.5 -50t-14.5 -55.5t-4 -46.5q0 -15 3.5 -31.5t21.5 -35t47 -18.5z" />
    <glyph glyph-name="q" unicode="q" horiz-adv-x="648" 
d="M631 519l-145 -687h-198l47 216h-2q-24 -29 -63 -45t-80 -16q-53 0 -91 21t-56 56t-25.5 68t-7.5 69q0 58 16.5 114.5t48 106t84 80t117.5 30.5q60 0 94.5 -18t54.5 -64h2l14 69h190zM316 388q-49 0 -78.5 -53.5t-29.5 -118.5q0 -85 75 -85q46 0 76.5 45.5t30.5 125.5
q0 86 -74 86z" />
    <glyph glyph-name="r" unicode="r" horiz-adv-x="444" 
d="M-18 0l107 519h192l-17 -81h2q25 40 69 67t82 27q48 0 70 -8l-37 -175q-35 13 -76 13q-63 0 -98 -33.5t-51 -111.5l-45 -217h-198z" />
    <glyph glyph-name="s" unicode="s" horiz-adv-x="556" 
d="M-16 170h182q0 -32 18 -48q16 -13 52 -13q24 0 38.5 9.5t18 18.5t3.5 18q0 6 -1.5 11t-5.5 9t-8.5 7t-12.5 6t-14 5t-17.5 4t-19 3.5t-22 3.5t-23.5 4q-141 20 -141 134q0 53 22 92t60.5 59.5t81.5 29.5t94 9q37 0 68 -3.5t64 -14t55.5 -28t35.5 -48t10 -70.5h-177
q3 29 -14 41q-15 13 -46 13q-23 0 -39.5 -10.5t-16.5 -31.5q0 -34 45 -39q119 -17 169.5 -50t50.5 -111q0 -90 -71 -141.5t-192 -51.5q-48 0 -87.5 7t-78.5 25.5t-61 56.5t-20 94z" />
    <glyph glyph-name="t" unicode="t" horiz-adv-x="407" 
d="M353 676l-35 -157h107l-28 -122h-105l-35 -167q-9 -38 -9 -52q0 -31 40 -31q17 0 65 3l-30 -143q-35 -7 -107 -13q-86 0 -125 21q-25 14 -39.5 41t-14.5 57q0 18 11 71l46 213h-88l28 122h86l35 157h198z" />
    <glyph glyph-name="u" unicode="u" horiz-adv-x="648" 
d="M625 519l-108 -519h-192l16 66h-2q-67 -79 -167 -79q-74 0 -119.5 33.5t-45.5 104.5q0 8 0.5 16t2 19.5t3.5 22.5t6 31l7.5 37.5t10.5 48.5t13 58.5t15.5 73.5t18.5 87h198l-58 -271q-8 -36 -8 -57t17 -33.5t40 -12.5q26 0 44.5 10.5t29.5 31.5t15.5 35t9.5 39l55 258
h198z" />
    <glyph glyph-name="v" unicode="v" horiz-adv-x="556" 
d="M591 519l-277 -519h-233l-61 519h199l21 -294h2l143 294h206z" />
    <glyph glyph-name="w" unicode="w" horiz-adv-x="870" 
d="M904 519l-271 -519h-206l-10 303h-2l-134 -303h-205l-52 519h195l15 -293h2l127 293h189l12 -293h2l128 293h210z" />
    <glyph glyph-name="x" unicode="x" horiz-adv-x="556" 
d="M-72 0l233 277l-118 242h200l42 -110l74 110h216l-207 -252l131 -267h-200l-57 127l-96 -127h-218z" />
    <glyph glyph-name="y" unicode="y" horiz-adv-x="556" 
d="M583 519l-288 -551q-21 -40 -34.5 -59t-41 -40t-70 -29t-108.5 -8q-40 0 -92 5l30 156q48 -3 49 -3q20 0 30 1t21.5 5.5t16 16t4.5 29.5l-92 477h200l34 -311h2l133 311h206z" />
    <glyph glyph-name="z" unicode="z" horiz-adv-x="556" 
d="M-49 0l31 144l287 229v2h-218l31 144h470l-32 -151l-280 -222v-2h254l-30 -144h-513z" />
    <glyph glyph-name="braceleft" unicode="{" horiz-adv-x="407" 
d="M452 731l-30 -153h-28q-35 0 -51.5 -18t-19.5 -39l-31 -151q-16 -79 -131 -88v-2q18 -2 29.5 -4t29 -9t26.5 -21.5t9 -35.5q0 -23 -10 -67l-18 -84q-8 -40 -8 -51q0 -23 30 -23h48l-31 -153h-124q-45 0 -81.5 24.5t-36.5 70.5q0 22 8 59l20 97q12 57 12 79q0 43 -71 43
l32 153q83 0 95 54l40 191q13 62 64 95t104 33h124z" />
    <glyph glyph-name="bar" unicode="|" horiz-adv-x="222" 
d="M35 -214v1000h153v-1000h-153z" />
    <glyph glyph-name="braceright" unicode="}" horiz-adv-x="407" 
d="M-71 -168l30 153h28q57 0 71 57l31 151q16 79 131 88v2q-18 2 -29.5 4t-29 9t-26.5 21.5t-9 35.5q0 23 10 67l18 84q8 40 8 51q0 23 -30 23h-48l31 153h124q45 0 81.5 -24.5t36.5 -70.5q0 -22 -8 -59l-20 -97q-12 -57 -12 -79q0 -43 71 -43l-32 -153q-83 0 -95 -54
l-40 -191q-13 -62 -64 -95t-104 -33h-124z" />
    <glyph glyph-name="asciitilde" unicode="~" horiz-adv-x="600" 
d="M495 367l36 -138q-27 -41 -55 -63.5t-70 -22.5q-45 0 -102 33q-57 34 -115 34q-52 0 -84 -71l-36 138q42 86 125 86q38 0 111 -32q81 -35 102 -35q19 0 36 11.5t27 24t25 35.5z" />
    <glyph glyph-name="uni00A0" unicode="&#xa0;" horiz-adv-x="334" 
 />
    <glyph glyph-name="exclamdown" unicode="&#xa1;" horiz-adv-x="334" 
d="M311 552l-41 -198h-205l41 198h205zM-41 -168l34 161l119 302h94l-8 -298l-35 -165h-204z" />
    <glyph glyph-name="cent" unicode="&#xa2;" horiz-adv-x="668" 
d="M372 384l-53 -251q46 8 71 74h190q-23 -99 -96.5 -159.5t-194.5 -60.5l-22 -103h-48l23 106q-48 7 -85.5 25.5t-59.5 41.5t-36 53t-19 57.5t-5 56.5q0 148 85.5 228t232.5 80l17 79h48l-17 -82q89 -9 144 -61t51 -146h-190q1 49 -36 62zM273 137l51 248q-32 -7 -53.5 -38
t-28.5 -62t-7 -59q0 -71 38 -89z" />
    <glyph glyph-name="sterling" unicode="&#xa3;" horiz-adv-x="668" 
d="M86 -17l-55 116q56 20 92.5 74t36.5 112h-109l25 127h68q-23 57 -23 97q0 72 40 124t98 75t126 23q265 0 265 -247h-190q0 40 -14 60q-20 29 -51 29q-30 0 -48 -22.5t-18 -56.5q0 -31 17 -82h126l-25 -127h-94q-5 -44 -22.5 -72.5t-48.5 -57.5l2 -2q22 8 50 8q16 0 63 -7
q6 -1 27 -7t32 -6q51 0 93 38l49 -141q-47 -30 -84 -42.5t-89 -12.5q-35 0 -113 16q-74 16 -114 16q-71 0 -112 -32z" />
    <glyph glyph-name="currency" unicode="&#xa4;" horiz-adv-x="668" 
d="M528 79l-59 60q-47 -42 -133 -42q-90 0 -136 40l-60 -58l-75 75l60 58q-40 57 -40 136q-1 80 40 135l-60 57l78 76l57 -56q19 16 57.5 27.5t78.5 11.5q39 0 76 -11.5t57 -27.5l58 56l76 -75l-58 -58q17 -20 29.5 -57.5t12.5 -77.5q0 -39 -12 -77t-30 -59l58 -58zM336 455
q-42 0 -74.5 -28t-32.5 -79t32.5 -79t74.5 -28t74.5 28t32.5 79t-32.5 79t-74.5 28z" />
    <glyph glyph-name="yen" unicode="&#xa5;" horiz-adv-x="668" 
d="M176 0l22 107h-157l26 122h157l9 43l-12 43h-141l26 122h73l-93 277h225l55 -277l169 277h225l-207 -277h73l-26 -122h-140l-29 -43l-9 -43h165l-26 -122h-165l-22 -107h-198z" />
    <glyph glyph-name="brokenbar" unicode="&#xa6;" horiz-adv-x="222" 
d="M35 411v250h153v-250h-153zM35 -89v250h153v-250h-153z" />
    <glyph glyph-name="section" unicode="&#xa7;" horiz-adv-x="667" 
d="M28 34h173q-5 -30 12 -50q20 -20 59 -20q28 0 46.5 13t18.5 37q0 15 -5 26t-20 21.5t-27.5 16.5t-43 20.5t-50.5 24.5q-89 38 -123 80.5t-34 100.5q0 63 39 104.5t102 48.5q-30 35 -30 83q0 27 10.5 55.5t35.5 61t78.5 53.5t127.5 21q109 0 165 -46.5t56 -122.5v-21
q0 -8 -1 -11h-169q5 23 -4 38q-19 19 -49 19q-24 0 -44.5 -9.5t-20.5 -33.5q0 -16 8.5 -24.5t26.5 -18.5l138 -72q57 -32 89 -67t32 -88q0 -56 -36 -104t-101 -56q35 -38 35 -96q0 -31 -10.5 -61.5t-35.5 -63t-79 -53t-129 -20.5q-67 0 -117 16t-76 43.5t-38 56.5t-12 62
q0 9 3 36zM454 238q0 19 -7.5 29.5t-23.5 19.5l-128 72q-28 15 -47 15q-18 0 -31 -14t-13 -35q0 -18 8.5 -29.5t30.5 -22.5l115 -62q36 -20 54 -20q15 1 28.5 13t13.5 34z" />
    <glyph glyph-name="dieresis" unicode="&#xa8;" horiz-adv-x="278" 
d="M214 580l28 133h176l-28 -133h-176zM-20 580l28 133h176l-28 -133h-176z" />
    <glyph glyph-name="copyright" unicode="&#xa9;" horiz-adv-x="800" 
d="M26 357q0 155 109.5 264.5t264.5 109.5t264.5 -109.5t109.5 -264.5t-109.5 -264.5t-264.5 -109.5t-264.5 109.5t-109.5 264.5zM153 357q0 -108 70.5 -182.5t176.5 -74.5t176.5 74.5t70.5 182.5t-70.5 182.5t-176.5 74.5t-176.5 -74.5t-70.5 -182.5zM483 309h100
q-12 -78 -61 -119.5t-117 -41.5q-89 0 -145 59.5t-56 148.5q0 92 54 150.5t145 58.5q70 0 117 -39.5t59 -115.5h-96q-12 52 -77 52q-43 0 -67.5 -29t-24.5 -75q0 -45 26 -76t65 -31q71 0 78 58z" />
    <glyph glyph-name="ordfeminine" unicode="&#xaa;" horiz-adv-x="378" 
d="M195 601h-121q23 103 172 103q169 0 169 -83q0 -27 -20.5 -114t-20.5 -94q0 -18 5 -30h-131q-5 20 -4 32h-2q-37 -40 -104 -40q-46 0 -76.5 21.5t-30.5 63.5q0 58 40 81t121 30q9 1 30 1q66 0 66 35q0 27 -42 27t-51 -33zM158 474q0 -29 41 -29q56 0 69 78
q-13 -7 -68 -14q-42 -5 -42 -35z" />
    <glyph glyph-name="guillemotleft" unicode="&#xab;" horiz-adv-x="444" 
d="M341 50l-131 140l35 167l188 128l-33 -156l-100 -69l70 -75zM138 50l-131 140l35 167l188 128l-33 -156l-100 -69l70 -75z" />
    <glyph glyph-name="logicalnot" unicode="&#xac;" horiz-adv-x="600" 
d="M553 450v-342h-153v189h-352v153h505z" />
    <glyph glyph-name="uni00AD" unicode="&#xad;" horiz-adv-x="407" 
d="M14 185l32 164h315l-32 -164h-315z" />
    <glyph glyph-name="registered" unicode="&#xae;" horiz-adv-x="800" 
d="M26 357q0 155 109.5 264.5t264.5 109.5t264.5 -109.5t109.5 -264.5t-109.5 -264.5t-264.5 -109.5t-264.5 109.5t-109.5 264.5zM153 357q0 -108 71 -182.5t176 -74.5t176 74.5t71 182.5t-71 182.5t-176 74.5t-176 -74.5t-71 -182.5zM252 167v379h150q93 0 128.5 -26
t35.5 -93q0 -98 -100 -103l85 -157h-97l-76 151h-36v-151h-90zM342 476v-88h62q66 -2 66 46q0 27 -18 34.5t-55 7.5h-55z" />
    <glyph glyph-name="macron" unicode="&#xaf;" horiz-adv-x="278" 
d="M21 603l18 87h338l-18 -87h-338z" />
    <glyph glyph-name="degree" unicode="&#xb0;" horiz-adv-x="400" 
d="M51 555q0 65 42.5 107t106.5 42t106.5 -42t42.5 -107t-42.5 -107t-106.5 -42t-106.5 42t-42.5 107zM129 555q0 -30 20.5 -50.5t50.5 -20.5t50.5 20.5t20.5 50.5t-20.5 50.5t-50.5 20.5t-50.5 -20.5t-20.5 -50.5z" />
    <glyph glyph-name="plusminus" unicode="&#xb1;" horiz-adv-x="600" 
d="M48 271v153h176v81h153v-81h176v-153h-176v-81h-153v81h-176zM48 0v153h505v-153h-505z" />
    <glyph glyph-name="uni00B2" unicode="&#xb2;" horiz-adv-x="410" 
d="M407 500l-19 -103h-360q10 80 41.5 124.5t98.5 76.5l93 45q27 13 38.5 25t11.5 30q0 14 -9 22.5t-24 8.5q-43 0 -53 -57h-142q10 74 61.5 115.5t140.5 41.5q83 0 126.5 -34.5t43.5 -86.5q0 -47 -27.5 -78.5t-87.5 -60.5l-95 -46q-25 -12 -33 -23h195z" />
    <glyph glyph-name="uni00B3" unicode="&#xb3;" horiz-adv-x="410" 
d="M192 573l17 88h46q25 0 40.5 10.5t15.5 27.5q0 16 -10.5 25.5t-28.5 9.5q-46 0 -54 -46h-133q23 141 200 141q77 0 118.5 -32.5t41.5 -79.5q0 -73 -82 -94v-3q31 -6 48 -27t17 -48q0 -75 -55 -116t-144 -41q-184 0 -184 144h138q0 -45 48 -45q27 0 44 14t17 36
q0 16 -11 26t-32 10h-57z" />
    <glyph glyph-name="acute" unicode="&#xb4;" horiz-adv-x="278" 
d="M73 574l110 144h209l-187 -144h-132z" />
    <glyph glyph-name="uni00B5" unicode="&#xb5;" horiz-adv-x="648" 
d="M282 519l-60 -280q-7 -37 -7 -47q0 -22 14.5 -34.5t40.5 -12.5q48 0 69.5 32t35.5 98l52 244h198l-108 -519h-192l16 66h-2q-65 -77 -143 -77q-10 0 -24 2l-34 -159h-198l144 687h198z" />
    <glyph glyph-name="paragraph" unicode="&#xb6;" horiz-adv-x="620" 
d="M656 714l-185 -888h-136l164 785h-65l-164 -785h-136l113 539q-35 0 -65.5 5.5t-61 20t-48 44t-17.5 71.5q0 55 24 96.5t65.5 65t91 35t106.5 11.5h314z" />
    <glyph glyph-name="periodcentered" unicode="&#xb7;" horiz-adv-x="334" 
d="M47 237q0 49 35.5 84.5t84.5 35.5t84.5 -35.5t35.5 -84.5t-35.5 -84.5t-84.5 -35.5t-84.5 35.5t-35.5 84.5z" />
    <glyph glyph-name="cedilla" unicode="&#xb8;" horiz-adv-x="278" 
d="M-86 -203l24 46q47 -20 86 -20q25 0 41 11t16 28q0 32 -38 32q-15 0 -31 -7l-26 28l66 85h65l-50 -61q18 2 33 2q40 0 62 -21t22 -54q0 -41 -37 -70t-101 -29q-75 0 -132 30z" />
    <glyph glyph-name="uni00B9" unicode="&#xb9;" horiz-adv-x="410" 
d="M401 820l-91 -423h-144l54 252h-109l20 95h31q89 0 115 76h124z" />
    <glyph glyph-name="ordmasculine" unicode="&#xba;" horiz-adv-x="378" 
d="M40 523q0 79 55 130t158 51q168 0 168 -136q0 -33 -10.5 -64.5t-33 -61.5t-65 -48.5t-99.5 -18.5q-79 0 -126 36.5t-47 111.5zM173 514q0 -52 46 -52q33 0 51 34.5t18 63.5t-10 43t-35 14q-24 0 -41 -20t-23 -42t-6 -41z" />
    <glyph glyph-name="guillemotright" unicode="&#xbb;" horiz-adv-x="444" 
d="M272 485l131 -140l-35 -167l-188 -128l33 156l100 69l-70 75zM69 485l131 -140l-35 -167l-188 -128l33 156l100 69l-70 75z" />
    <glyph glyph-name="onequarter" unicode="&#xbc;" horiz-adv-x="1000" 
d="M209 -26l373 748h122l-373 -748h-122zM375 703l-91 -423h-144l54 252h-109l20 95h31q89 0 115 76h124zM666 0l17 74h-194l19 93l257 256h124l-54 -252h61l-20 -97h-62l-16 -74h-132zM704 171l30 117l-120 -117h90z" />
    <glyph glyph-name="onehalf" unicode="&#xbd;" horiz-adv-x="1000" 
d="M189 -26l373 748h122l-373 -748h-122zM375 703l-91 -423h-144l54 252h-109l20 95h31q89 0 115 76h124zM870 103l-19 -103h-360q10 80 41.5 124.5t98.5 76.5l93 45q27 13 38.5 25t11.5 30q0 14 -9 22.5t-24 8.5q-43 0 -53 -57h-142q10 74 61.5 115.5t140.5 41.5
q83 0 126.5 -34.5t43.5 -86.5q0 -47 -27.5 -78.5t-87.5 -60.5l-95 -46q-25 -12 -33 -23h195z" />
    <glyph glyph-name="threequarters" unicode="&#xbe;" horiz-adv-x="1000" 
d="M267 -26l373 748h122l-373 -748h-122zM198 456l17 88h46q25 0 40.5 10.5t15.5 27.5q0 16 -10.5 25.5t-28.5 9.5q-46 0 -54 -46h-133q23 141 200 141q77 0 118.5 -32.5t41.5 -79.5q0 -73 -82 -94v-3q31 -6 48 -27t17 -48q0 -75 -55 -116t-144 -41q-184 0 -184 144h138
q0 -45 48 -45q27 0 44 14t17 36q0 16 -11 26t-32 10h-57zM686 0l17 74h-194l19 93l257 256h124l-54 -252h61l-20 -97h-62l-16 -74h-132zM724 171l30 117l-120 -117h90z" />
    <glyph glyph-name="questiondown" unicode="&#xbf;" horiz-adv-x="574" 
d="M450 552l-41 -198h-205l41 198h205zM295 66h201q-31 -247 -299 -247q-248 0 -248 180q0 36 8 65t16 45t28.5 33t28 21.5t31.5 17.5q16 9 40 19t39 17t30.5 18t23 26.5t7.5 37.5h183q-10 -74 -38.5 -118.5t-93.5 -70.5q-34 -14 -43 -18t-26 -14t-21.5 -19.5t-4.5 -23.5
q0 -11 3.5 -21t18 -20.5t38.5 -10.5q41 0 59.5 27.5t18.5 55.5z" />
    <glyph glyph-name="Agrave" unicode="&#xc0;" horiz-adv-x="722" 
d="M-80 0l413 714h216l111 -714h-216l-12 102h-233l-55 -102h-224zM279 255h137l-24 214h-2zM437 912l104 -144h-132l-181 144h209z" />
    <glyph glyph-name="Aacute" unicode="&#xc1;" horiz-adv-x="722" 
d="M-80 0l413 714h216l111 -714h-216l-12 102h-233l-55 -102h-224zM279 255h137l-24 214h-2zM348 768l110 144h209l-187 -144h-132z" />
    <glyph glyph-name="Acircumflex" unicode="&#xc2;" horiz-adv-x="722" 
d="M-80 0l413 714h216l111 -714h-216l-12 102h-233l-55 -102h-224zM279 255h137l-24 214h-2zM241 768l147 144h163l88 -144h-119l-54 74l-81 -74h-144z" />
    <glyph glyph-name="Atilde" unicode="&#xc3;" horiz-adv-x="722" 
d="M-80 0l413 714h216l111 -714h-216l-12 102h-233l-55 -102h-224zM279 255h137l-24 214h-2zM575 912h80q-7 -67 -39 -104.5t-86 -37.5q-35 0 -77 20q-7 3 -21 10t-24.5 10.5t-20.5 3.5q-15 0 -26.5 -15t-14.5 -31h-82q2 55 37.5 97.5t89.5 42.5q35 0 79 -20q52 -24 63 -24
q25 0 42 48z" />
    <glyph glyph-name="Adieresis" unicode="&#xc4;" horiz-adv-x="722" 
d="M-80 0l413 714h216l111 -714h-216l-12 102h-233l-55 -102h-224zM279 255h137l-24 214h-2zM479 774l28 133h176l-28 -133h-176zM245 774l28 133h176l-28 -133h-176z" />
    <glyph glyph-name="Aring" unicode="&#xc5;" horiz-adv-x="722" 
d="M-80 0l413 714h216l111 -714h-216l-12 102h-233l-55 -102h-224zM279 255h137l-24 214h-2zM342 846q0 46 33 78t79 32t79 -32t33 -78q0 -47 -32.5 -77t-79.5 -30t-79.5 30t-32.5 77zM402 846q0 -22 15.5 -37t36.5 -15q22 0 37 15t15 37t-15 37t-37 15q-21 0 -36.5 -15
t-15.5 -37z" />
    <glyph glyph-name="AE" unicode="&#xc6;" horiz-adv-x="1056" 
d="M-100 0l482 714h696l-36 -183h-327l-18 -89h304l-35 -170h-305l-18 -89h331l-36 -183h-544l22 105h-201l-66 -105h-249zM447 249l59 282h-22l-181 -282h144z" />
    <glyph glyph-name="Ccedilla" unicode="&#xc7;" horiz-adv-x="759" 
d="M155 -203l24 46q47 -20 86 -20q25 0 41 11t16 28q0 32 -38 32q-15 0 -31 -7l-26 28l56 72q-122 17 -185 102.5t-63 218.5q0 117 45 212t134.5 153t207.5 58q134 0 217.5 -66.5t87.5 -216.5h-208q5 105 -98 105q-57 0 -96.5 -40.5t-54.5 -92.5t-15 -108q0 -151 115 -151
q96 0 122 110h216q-5 -29 -14 -58.5t-35 -73.5t-63 -76t-103 -56t-149 -24l-36 -44q18 2 33 2q40 0 62 -21t22 -54q0 -41 -37 -70t-101 -29q-75 0 -132 30z" />
    <glyph glyph-name="Egrave" unicode="&#xc8;" horiz-adv-x="704" 
d="M-13 0l149 714h590l-37 -183h-370l-19 -89h343l-35 -170h-344l-19 -89h378l-38 -183h-598zM405 912l104 -144h-132l-181 144h209z" />
    <glyph glyph-name="Eacute" unicode="&#xc9;" horiz-adv-x="704" 
d="M-13 0l149 714h590l-37 -183h-370l-19 -89h343l-35 -170h-344l-19 -89h378l-38 -183h-598zM345 768l110 144h209l-187 -144h-132z" />
    <glyph glyph-name="Ecircumflex" unicode="&#xca;" horiz-adv-x="704" 
d="M-13 0l149 714h590l-37 -183h-370l-19 -89h343l-35 -170h-344l-19 -89h378l-38 -183h-598zM225 768l147 144h163l88 -144h-119l-54 74l-81 -74h-144z" />
    <glyph glyph-name="Edieresis" unicode="&#xcb;" horiz-adv-x="704" 
d="M-13 0l149 714h590l-37 -183h-370l-19 -89h343l-35 -170h-344l-19 -89h378l-38 -183h-598zM456 774l28 133h176l-28 -133h-176zM222 774l28 133h176l-28 -133h-176z" />
    <glyph glyph-name="Igrave" unicode="&#xcc;" horiz-adv-x="333" 
d="M-13 0l148 714h220l-148 -714h-220zM251 912l104 -144h-132l-181 144h209z" />
    <glyph glyph-name="Iacute" unicode="&#xcd;" horiz-adv-x="333" 
d="M-13 0l148 714h220l-148 -714h-220zM139 768l110 144h209l-187 -144h-132z" />
    <glyph glyph-name="Icircumflex" unicode="&#xce;" horiz-adv-x="333" 
d="M-13 0l148 714h220l-148 -714h-220zM48 768l147 144h163l88 -144h-119l-54 74l-81 -74h-144z" />
    <glyph glyph-name="Idieresis" unicode="&#xcf;" horiz-adv-x="333" 
d="M-13 0l148 714h220l-148 -714h-220zM283 774l28 133h176l-28 -133h-176zM49 774l28 133h176l-28 -133h-176z" />
    <glyph glyph-name="Eth" unicode="&#xd0;" horiz-adv-x="778" 
d="M-17 0l65 310h-60l26 122h59l59 282h329q53 0 102.5 -17t93 -52.5t68 -99t20.5 -146.5q-10 -181 -118 -290t-291 -109h-353zM315 531l-20 -99h141l-26 -122h-141l-27 -127h106q51 0 88 23.5t55 60t26 69.5t8 62q0 75 -33.5 104t-95.5 29h-81z" />
    <glyph glyph-name="Ntilde" unicode="&#xd1;" horiz-adv-x="759" 
d="M-15 0l148 714h218l134 -390h2l80 390h209l-150 -714h-216l-131 400h-2l-83 -400h-209zM583 912h80q-7 -67 -39 -104.5t-86 -37.5q-35 0 -77 20q-7 3 -21 10t-24.5 10.5t-20.5 3.5q-15 0 -26.5 -15t-14.5 -31h-82q2 55 37.5 97.5t89.5 42.5q35 0 79 -20q52 -24 63 -24
q25 0 42 48z" />
    <glyph glyph-name="Ograve" unicode="&#xd2;" horiz-adv-x="796" 
d="M35 296q0 184 111.5 309.5t289.5 125.5q156 0 240.5 -77t84.5 -236q0 -184 -111.5 -309.5t-289.5 -125.5q-154 0 -239.5 80.5t-85.5 232.5zM255 291q0 -56 26 -93t85 -37q62 0 103.5 45t56.5 101t15 116q0 56 -26 93t-85 37q-62 0 -103.5 -45t-56.5 -101t-15 -116z
M421 912l104 -144h-132l-181 144h209z" />
    <glyph glyph-name="Oacute" unicode="&#xd3;" horiz-adv-x="796" 
d="M35 296q0 184 111.5 309.5t289.5 125.5q156 0 240.5 -77t84.5 -236q0 -184 -111.5 -309.5t-289.5 -125.5q-154 0 -239.5 80.5t-85.5 232.5zM255 291q0 -56 26 -93t85 -37q62 0 103.5 45t56.5 101t15 116q0 56 -26 93t-85 37q-62 0 -103.5 -45t-56.5 -101t-15 -116z
M389 768l110 144h209l-187 -144h-132z" />
    <glyph glyph-name="Ocircumflex" unicode="&#xd4;" horiz-adv-x="796" 
d="M35 296q0 184 111.5 309.5t289.5 125.5q156 0 240.5 -77t84.5 -236q0 -184 -111.5 -309.5t-289.5 -125.5q-154 0 -239.5 80.5t-85.5 232.5zM255 291q0 -56 26 -93t85 -37q62 0 103.5 45t56.5 101t15 116q0 56 -26 93t-85 37q-62 0 -103.5 -45t-56.5 -101t-15 -116z
M274 768l147 144h163l88 -144h-119l-54 74l-81 -74h-144z" />
    <glyph glyph-name="Otilde" unicode="&#xd5;" horiz-adv-x="796" 
d="M35 296q0 184 111.5 309.5t289.5 125.5q156 0 240.5 -77t84.5 -236q0 -184 -111.5 -309.5t-289.5 -125.5q-154 0 -239.5 80.5t-85.5 232.5zM255 291q0 -56 26 -93t85 -37q62 0 103.5 45t56.5 101t15 116q0 56 -26 93t-85 37q-62 0 -103.5 -45t-56.5 -101t-15 -116z
M593 912h80q-7 -67 -39 -104.5t-86 -37.5q-35 0 -77 20q-7 3 -21 10t-24.5 10.5t-20.5 3.5q-15 0 -26.5 -15t-14.5 -31h-82q2 55 37.5 97.5t89.5 42.5q35 0 79 -20q52 -24 63 -24q25 0 42 48z" />
    <glyph glyph-name="Odieresis" unicode="&#xd6;" horiz-adv-x="796" 
d="M35 296q0 184 111.5 309.5t289.5 125.5q156 0 240.5 -77t84.5 -236q0 -184 -111.5 -309.5t-289.5 -125.5q-154 0 -239.5 80.5t-85.5 232.5zM255 291q0 -56 26 -93t85 -37q62 0 103.5 45t56.5 101t15 116q0 56 -26 93t-85 37q-62 0 -103.5 -45t-56.5 -101t-15 -116z
M492 774l28 133h176l-28 -133h-176zM258 774l28 133h176l-28 -133h-176z" />
    <glyph glyph-name="multiply" unicode="&#xd7;" horiz-adv-x="600" 
d="M159 4l-108 108l141 141l-141 141l108 108l141 -141l141 142l108 -108l-141 -142l141 -141l-109 -108l-140 141z" />
    <glyph glyph-name="Oslash" unicode="&#xd8;" horiz-adv-x="796" 
d="M767 744l52 -58l-102 -92q44 -74 44 -176q0 -184 -111.5 -309.5t-289.5 -125.5q-147 0 -232 77l-103 -94l-52 56l107 97q-45 71 -45 177q0 184 111.5 309.5t289.5 125.5q147 0 232 -77zM256 279l260 236q-28 38 -86 38q-62 0 -103.5 -45t-56.5 -101t-15 -116q0 -9 1 -12z
M540 434l-259 -235q26 -38 85 -38q62 0 103.5 45t56.5 101t15 116q0 8 -1 11z" />
    <glyph glyph-name="Ugrave" unicode="&#xd9;" horiz-adv-x="759" 
d="M780 714l-98 -472q-27 -131 -119 -195t-231 -64q-151 0 -226.5 62t-75.5 156q0 21 7 58l95 455h220l-81 -390q-12 -58 -12 -80q0 -83 84 -83q61 0 90.5 44t44.5 117l82 392h220zM431 912l104 -144h-132l-181 144h209z" />
    <glyph glyph-name="Uacute" unicode="&#xda;" horiz-adv-x="759" 
d="M780 714l-98 -472q-27 -131 -119 -195t-231 -64q-151 0 -226.5 62t-75.5 156q0 21 7 58l95 455h220l-81 -390q-12 -58 -12 -80q0 -83 84 -83q61 0 90.5 44t44.5 117l82 392h220zM396 768l110 144h209l-187 -144h-132z" />
    <glyph glyph-name="Ucircumflex" unicode="&#xdb;" horiz-adv-x="759" 
d="M780 714l-98 -472q-27 -131 -119 -195t-231 -64q-151 0 -226.5 62t-75.5 156q0 21 7 58l95 455h220l-81 -390q-12 -58 -12 -80q0 -83 84 -83q61 0 90.5 44t44.5 117l82 392h220zM259 768l147 144h163l88 -144h-119l-54 74l-81 -74h-144z" />
    <glyph glyph-name="Udieresis" unicode="&#xdc;" horiz-adv-x="759" 
d="M780 714l-98 -472q-27 -131 -119 -195t-231 -64q-151 0 -226.5 62t-75.5 156q0 21 7 58l95 455h220l-81 -390q-12 -58 -12 -80q0 -83 84 -83q61 0 90.5 44t44.5 117l82 392h220zM491 774l28 133h176l-28 -133h-176zM257 774l28 133h176l-28 -133h-176z" />
    <glyph glyph-name="Yacute" unicode="&#xdd;" horiz-adv-x="667" 
d="M148 0l54 262l-153 452h221l68 -266l174 266h258l-348 -450l-54 -264h-220zM346 768l110 144h209l-187 -144h-132z" />
    <glyph glyph-name="Thorn" unicode="&#xde;" horiz-adv-x="704" 
d="M-13 0l149 714h217l-18 -84h137q102 0 159 -57.5t57 -172.5q0 -111 -86 -189.5t-223 -78.5h-148l-28 -132h-216zM298 447l-31 -145h84q117 0 117 81q0 64 -95 64h-75z" />
    <glyph glyph-name="germandbls" unicode="&#xdf;" horiz-adv-x="648" 
d="M-18 0l94 454q21 111 44 156q63 121 246 121q53 0 93.5 -7t78 -24.5t57.5 -53.5t20 -88q0 -125 -130 -167l-2 -2q14 -1 30.5 -8.5t35 -23t30.5 -46t12 -71.5q0 -34 -8 -66.5t-28 -65.5t-50.5 -58t-80.5 -40.5t-112 -15.5q-57 0 -93 6l33 152q20 -5 37 -5q50 0 77 30
t27 80q0 79 -102 74l23 110q25 0 40.5 2t31.5 9t23.5 23t7.5 40q0 58 -55 58q-23 0 -39.5 -10.5t-25 -27t-14 -37.5t-9.5 -41q-1 -6 -1 -8l-93 -449h-198z" />
    <glyph glyph-name="agrave" unicode="&#xe0;" 
d="M243 362h-186q12 50 36.5 84.5t61 52.5t76 25.5t91.5 7.5q252 0 252 -138q0 -46 -31.5 -192t-31.5 -156q0 -25 8 -46h-194q-8 27 -7 50h-2q-24 -30 -69 -46.5t-91 -16.5q-73 0 -120.5 34t-47.5 104q0 96 64 136t187 49q6 0 25 0.5t28.5 1.5t26.5 3t26 6t19.5 10t15 16
t4.5 23q0 45 -62 45q-64 0 -79 -53zM186 149q0 -45 63 -45q48 0 72 32t34 94q-34 -17 -105 -23q-64 -6 -64 -58zM333 718l104 -144h-132l-181 144h209z" />
    <glyph glyph-name="aacute" unicode="&#xe1;" 
d="M243 362h-186q12 50 36.5 84.5t61 52.5t76 25.5t91.5 7.5q252 0 252 -138q0 -46 -31.5 -192t-31.5 -156q0 -25 8 -46h-194q-8 27 -7 50h-2q-24 -30 -69 -46.5t-91 -16.5q-73 0 -120.5 34t-47.5 104q0 96 64 136t187 49q6 0 25 0.5t28.5 1.5t26.5 3t26 6t19.5 10t15 16
t4.5 23q0 45 -62 45q-64 0 -79 -53zM186 149q0 -45 63 -45q48 0 72 32t34 94q-34 -17 -105 -23q-64 -6 -64 -58zM280 574l110 144h209l-187 -144h-132z" />
    <glyph glyph-name="acircumflex" unicode="&#xe2;" 
d="M243 362h-186q12 50 36.5 84.5t61 52.5t76 25.5t91.5 7.5q252 0 252 -138q0 -46 -31.5 -192t-31.5 -156q0 -25 8 -46h-194q-8 27 -7 50h-2q-24 -30 -69 -46.5t-91 -16.5q-73 0 -120.5 34t-47.5 104q0 96 64 136t187 49q6 0 25 0.5t28.5 1.5t26.5 3t26 6t19.5 10t15 16
t4.5 23q0 45 -62 45q-64 0 -79 -53zM186 149q0 -45 63 -45q48 0 72 32t34 94q-34 -17 -105 -23q-64 -6 -64 -58zM159 574l147 144h163l88 -144h-119l-54 74l-81 -74h-144z" />
    <glyph glyph-name="atilde" unicode="&#xe3;" 
d="M243 362h-186q12 50 36.5 84.5t61 52.5t76 25.5t91.5 7.5q252 0 252 -138q0 -46 -31.5 -192t-31.5 -156q0 -25 8 -46h-194q-8 27 -7 50h-2q-24 -30 -69 -46.5t-91 -16.5q-73 0 -120.5 34t-47.5 104q0 96 64 136t187 49q6 0 25 0.5t28.5 1.5t26.5 3t26 6t19.5 10t15 16
t4.5 23q0 45 -62 45q-64 0 -79 -53zM186 149q0 -45 63 -45q48 0 72 32t34 94q-34 -17 -105 -23q-64 -6 -64 -58zM477 718h80q-7 -67 -39 -104.5t-86 -37.5q-35 0 -77 20q-7 3 -21 10t-24.5 10.5t-20.5 3.5q-15 0 -26.5 -15t-14.5 -31h-82q2 55 37.5 97.5t89.5 42.5
q35 0 79 -20q52 -24 63 -24q25 0 42 48z" />
    <glyph glyph-name="adieresis" unicode="&#xe4;" 
d="M243 362h-186q12 50 36.5 84.5t61 52.5t76 25.5t91.5 7.5q252 0 252 -138q0 -46 -31.5 -192t-31.5 -156q0 -25 8 -46h-194q-8 27 -7 50h-2q-24 -30 -69 -46.5t-91 -16.5q-73 0 -120.5 34t-47.5 104q0 96 64 136t187 49q6 0 25 0.5t28.5 1.5t26.5 3t26 6t19.5 10t15 16
t4.5 23q0 45 -62 45q-64 0 -79 -53zM186 149q0 -45 63 -45q48 0 72 32t34 94q-34 -17 -105 -23q-64 -6 -64 -58zM387 580l28 133h176l-28 -133h-176zM153 580l28 133h176l-28 -133h-176z" />
    <glyph glyph-name="aring" unicode="&#xe5;" 
d="M243 362h-186q12 50 36.5 84.5t61 52.5t76 25.5t91.5 7.5q252 0 252 -138q0 -46 -31.5 -192t-31.5 -156q0 -25 8 -46h-194q-8 27 -7 50h-2q-24 -30 -69 -46.5t-91 -16.5q-73 0 -120.5 34t-47.5 104q0 96 64 136t187 49q6 0 25 0.5t28.5 1.5t26.5 3t26 6t19.5 10t15 16
t4.5 23q0 45 -62 45q-64 0 -79 -53zM186 149q0 -45 63 -45q48 0 72 32t34 94q-34 -17 -105 -23q-64 -6 -64 -58zM250 666q0 46 33 78t79 32t79 -32t33 -78q0 -47 -32.5 -77t-79.5 -30t-79.5 30t-32.5 77zM310 666q0 -22 15.5 -37t36.5 -15q22 0 37 15t15 37t-15 37t-37 15
q-21 0 -36.5 -15t-15.5 -37z" />
    <glyph glyph-name="ae" unicode="&#xe6;" horiz-adv-x="944" 
d="M889 215h-374q-11 -101 88 -101q23 0 45 10.5t30 29.5h190q-31 -89 -99 -128t-176 -39q-137 0 -196 78q-73 -78 -206 -78q-212 0 -212 138q0 96 64 136t187 49q6 0 25 0.5t28.5 1.5t26.5 3t26 6t19.5 10t15 16t4.5 23q0 45 -62 45q-64 0 -79 -53h-186q12 50 36.5 84.5
t61 52.5t76 25.5t91.5 7.5q115 0 173 -54q70 54 159 54q253 0 253 -239q0 -22 -9 -78zM533 318h180q0 38 -18.5 62.5t-55.5 24.5q-29 0 -49.5 -8.5t-30.5 -22t-15.5 -26t-9.5 -25.5q-1 -3 -1 -5zM346 230q-34 -17 -105 -23q-64 -6 -64 -58q0 -45 63 -45q48 0 72 32t34 94z
" />
    <glyph glyph-name="ccedilla" unicode="&#xe7;" horiz-adv-x="593" 
d="M317 388q-39 0 -65.5 -31.5t-35 -66t-8.5 -64.5q0 -95 68 -95q60 0 87 76h190q-52 -220 -281 -220l-39 -48q18 2 33 2q40 0 62 -21t22 -54q0 -41 -37 -70t-101 -29q-75 0 -132 30l24 46q47 -20 86 -20q25 0 41 11t16 28q0 32 -38 32q-15 0 -31 -7l-26 28l59 77
q-48 7 -84.5 25.5t-58 41.5t-35 53t-18.5 56.5t-5 55.5q0 136 84 222t229 86q112 0 180 -51t68 -153v-6h-190v7q0 30 -14.5 44.5t-49.5 14.5z" />
    <glyph glyph-name="egrave" unicode="&#xe8;" 
d="M354 151h190q-22 -55 -46 -81q-73 -83 -230 -83q-131 0 -194.5 63.5t-63.5 165.5q0 84 30 148.5t78 99t99.5 51.5t103.5 17q45 0 88.5 -13t81.5 -39t61 -71.5t23 -103.5q0 -54 -10 -90h-370q0 -101 81 -101q57 0 78 37zM212 318h176q2 14 2 17q0 31 -19 50.5t-56 19.5
q-80 0 -103 -87zM295 718l104 -144h-132l-181 144h209z" />
    <glyph glyph-name="eacute" unicode="&#xe9;" 
d="M354 151h190q-22 -55 -46 -81q-73 -83 -230 -83q-131 0 -194.5 63.5t-63.5 165.5q0 84 30 148.5t78 99t99.5 51.5t103.5 17q45 0 88.5 -13t81.5 -39t61 -71.5t23 -103.5q0 -54 -10 -90h-370q0 -101 81 -101q57 0 78 37zM212 318h176q2 14 2 17q0 31 -19 50.5t-56 19.5
q-80 0 -103 -87zM261 574l110 144h209l-187 -144h-132z" />
    <glyph glyph-name="ecircumflex" unicode="&#xea;" 
d="M354 151h190q-22 -55 -46 -81q-73 -83 -230 -83q-131 0 -194.5 63.5t-63.5 165.5q0 84 30 148.5t78 99t99.5 51.5t103.5 17q45 0 88.5 -13t81.5 -39t61 -71.5t23 -103.5q0 -54 -10 -90h-370q0 -101 81 -101q57 0 78 37zM212 318h176q2 14 2 17q0 31 -19 50.5t-56 19.5
q-80 0 -103 -87zM137 574l147 144h163l88 -144h-119l-54 74l-81 -74h-144z" />
    <glyph glyph-name="edieresis" unicode="&#xeb;" 
d="M354 151h190q-22 -55 -46 -81q-73 -83 -230 -83q-131 0 -194.5 63.5t-63.5 165.5q0 84 30 148.5t78 99t99.5 51.5t103.5 17q45 0 88.5 -13t81.5 -39t61 -71.5t23 -103.5q0 -54 -10 -90h-370q0 -101 81 -101q57 0 78 37zM212 318h176q2 14 2 17q0 31 -19 50.5t-56 19.5
q-80 0 -103 -87zM375 580l28 133h176l-28 -133h-176zM141 580l28 133h176l-28 -133h-176z" />
    <glyph glyph-name="igrave" unicode="&#xec;" horiz-adv-x="315" 
d="M185 0h-198l108 519h198zM189 718l104 -144h-132l-181 144h209z" />
    <glyph glyph-name="iacute" unicode="&#xed;" horiz-adv-x="315" 
d="M185 0h-198l108 519h198zM104 574l110 144h209l-187 -144h-132z" />
    <glyph glyph-name="icircumflex" unicode="&#xee;" horiz-adv-x="315" 
d="M185 0h-198l108 519h198zM-6 574l147 144h163l88 -144h-119l-54 74l-81 -74h-144z" />
    <glyph glyph-name="idieresis" unicode="&#xef;" horiz-adv-x="315" 
d="M185 0h-198l108 519h198zM230 580l28 133h176l-28 -133h-176zM-4 580l28 133h176l-28 -133h-176z" />
    <glyph glyph-name="eth" unicode="&#xf0;" 
d="M277 495q65 0 106 -23l2 2q-6 23 -26.5 49.5t-39.5 39.5l-102 -51l-47 61l82 41q-38 27 -77 42l114 90q66 -23 110 -53l97 49l48 -62l-84 -41q62 -61 92 -140t30 -154q0 -358 -325 -358q-110 0 -178.5 61.5t-68.5 169.5q0 119 75 197q35 35 89 57.5t103 22.5zM278 131
q54 0 80 43.5t26 102.5q0 43 -15 67t-55 24q-32 0 -55 -19.5t-33 -48.5t-14 -52t-4 -41q0 -34 17.5 -55t52.5 -21z" />
    <glyph glyph-name="ntilde" unicode="&#xf1;" horiz-adv-x="648" 
d="M-18 0l108 519h191l-15 -66h2q66 79 161 79q75 0 122 -34t47 -106q0 -31 -14 -99l-63 -293h-198l51 238q16 71 16 86q0 24 -15.5 37t-40.5 13q-75 0 -96 -99l-58 -275h-198zM484 718h80q-7 -67 -39 -104.5t-86 -37.5q-35 0 -77 20q-7 3 -21 10t-24.5 10.5t-20.5 3.5
q-15 0 -26.5 -15t-14.5 -31h-82q2 55 37.5 97.5t89.5 42.5q35 0 79 -20q52 -24 63 -24q25 0 42 48z" />
    <glyph glyph-name="ograve" unicode="&#xf2;" 
d="M10 230q0 130 83.5 216t236.5 86q118 0 185 -56.5t67 -170.5q0 -54 -16 -106.5t-50 -101.5t-98 -79.5t-149 -30.5q-116 0 -187.5 59.5t-71.5 183.5zM208 215q0 -84 70 -84q51 0 78.5 56t27.5 104q0 50 -15.5 73.5t-53.5 23.5q-36 0 -62 -33.5t-35.5 -70.5t-9.5 -69z
M306 718l104 -144h-132l-181 144h209z" />
    <glyph glyph-name="oacute" unicode="&#xf3;" 
d="M10 230q0 130 83.5 216t236.5 86q118 0 185 -56.5t67 -170.5q0 -54 -16 -106.5t-50 -101.5t-98 -79.5t-149 -30.5q-116 0 -187.5 59.5t-71.5 183.5zM208 215q0 -84 70 -84q51 0 78.5 56t27.5 104q0 50 -15.5 73.5t-53.5 23.5q-36 0 -62 -33.5t-35.5 -70.5t-9.5 -69z
M272 574l110 144h209l-187 -144h-132z" />
    <glyph glyph-name="ocircumflex" unicode="&#xf4;" 
d="M10 230q0 130 83.5 216t236.5 86q118 0 185 -56.5t67 -170.5q0 -54 -16 -106.5t-50 -101.5t-98 -79.5t-149 -30.5q-116 0 -187.5 59.5t-71.5 183.5zM208 215q0 -84 70 -84q51 0 78.5 56t27.5 104q0 50 -15.5 73.5t-53.5 23.5q-36 0 -62 -33.5t-35.5 -70.5t-9.5 -69z
M150 574l147 144h163l88 -144h-119l-54 74l-81 -74h-144z" />
    <glyph glyph-name="otilde" unicode="&#xf5;" 
d="M10 230q0 130 83.5 216t236.5 86q118 0 185 -56.5t67 -170.5q0 -54 -16 -106.5t-50 -101.5t-98 -79.5t-149 -30.5q-116 0 -187.5 59.5t-71.5 183.5zM208 215q0 -84 70 -84q51 0 78.5 56t27.5 104q0 50 -15.5 73.5t-53.5 23.5q-36 0 -62 -33.5t-35.5 -70.5t-9.5 -69z
M466 718h80q-7 -67 -39 -104.5t-86 -37.5q-35 0 -77 20q-7 3 -21 10t-24.5 10.5t-20.5 3.5q-15 0 -26.5 -15t-14.5 -31h-82q2 55 37.5 97.5t89.5 42.5q35 0 79 -20q52 -24 63 -24q25 0 42 48z" />
    <glyph glyph-name="odieresis" unicode="&#xf6;" 
d="M10 230q0 130 83.5 216t236.5 86q118 0 185 -56.5t67 -170.5q0 -54 -16 -106.5t-50 -101.5t-98 -79.5t-149 -30.5q-116 0 -187.5 59.5t-71.5 183.5zM208 215q0 -84 70 -84q51 0 78.5 56t27.5 104q0 50 -15.5 73.5t-53.5 23.5q-36 0 -62 -33.5t-35.5 -70.5t-9.5 -69z
M370 580l28 133h176l-28 -133h-176zM136 580l28 133h176l-28 -133h-176z" />
    <glyph glyph-name="divide" unicode="&#xf7;" horiz-adv-x="600" 
d="M200 460q0 42 29.5 71.5t71.5 29.5t72 -29.5t30 -71.5t-30 -72t-72 -30t-71.5 30t-29.5 72zM48 176v153h505v-153h-505zM200 46q0 42 29.5 71.5t71.5 29.5t72 -29.5t30 -71.5t-30 -72t-72 -30t-71.5 30t-29.5 72z" />
    <glyph glyph-name="oslash" unicode="&#xf8;" 
d="M566 549l38 -41l-64 -60q42 -56 42 -143q0 -54 -16 -106.5t-50 -101.5t-98 -79.5t-149 -30.5q-102 0 -171 47l-73 -68l-37 40l70 66q-48 60 -48 158q0 130 83.5 216t236.5 86q108 0 170 -45zM208 213l160 151q-15 24 -53 24q-36 0 -62 -33.5t-35.5 -70.5t-9.5 -69v-2z
M384 301l-159 -148q19 -22 53 -22q51 0 78.5 56t27.5 104v10z" />
    <glyph glyph-name="ugrave" unicode="&#xf9;" horiz-adv-x="648" 
d="M625 519l-108 -519h-192l16 66h-2q-67 -79 -167 -79q-74 0 -119.5 33.5t-45.5 104.5q0 8 0.5 16t2 19.5t3.5 22.5t6 31l7.5 37.5t10.5 48.5t13 58.5t15.5 73.5t18.5 87h198l-58 -271q-8 -36 -8 -57t17 -33.5t40 -12.5q26 0 44.5 10.5t29.5 31.5t15.5 35t9.5 39l55 258
h198zM323 718l104 -144h-132l-181 144h209z" />
    <glyph glyph-name="uacute" unicode="&#xfa;" horiz-adv-x="648" 
d="M625 519l-108 -519h-192l16 66h-2q-67 -79 -167 -79q-74 0 -119.5 33.5t-45.5 104.5q0 8 0.5 16t2 19.5t3.5 22.5t6 31l7.5 37.5t10.5 48.5t13 58.5t15.5 73.5t18.5 87h198l-58 -271q-8 -36 -8 -57t17 -33.5t40 -12.5q26 0 44.5 10.5t29.5 31.5t15.5 35t9.5 39l55 258
h198zM299 574l110 144h209l-187 -144h-132z" />
    <glyph glyph-name="ucircumflex" unicode="&#xfb;" horiz-adv-x="648" 
d="M625 519l-108 -519h-192l16 66h-2q-67 -79 -167 -79q-74 0 -119.5 33.5t-45.5 104.5q0 8 0.5 16t2 19.5t3.5 22.5t6 31l7.5 37.5t10.5 48.5t13 58.5t15.5 73.5t18.5 87h198l-58 -271q-8 -36 -8 -57t17 -33.5t40 -12.5q26 0 44.5 10.5t29.5 31.5t15.5 35t9.5 39l55 258
h198zM163 574l147 144h163l88 -144h-119l-54 74l-81 -74h-144z" />
    <glyph glyph-name="udieresis" unicode="&#xfc;" horiz-adv-x="648" 
d="M625 519l-108 -519h-192l16 66h-2q-67 -79 -167 -79q-74 0 -119.5 33.5t-45.5 104.5q0 8 0.5 16t2 19.5t3.5 22.5t6 31l7.5 37.5t10.5 48.5t13 58.5t15.5 73.5t18.5 87h198l-58 -271q-8 -36 -8 -57t17 -33.5t40 -12.5q26 0 44.5 10.5t29.5 31.5t15.5 35t9.5 39l55 258
h198zM395 580l28 133h176l-28 -133h-176zM161 580l28 133h176l-28 -133h-176z" />
    <glyph glyph-name="yacute" unicode="&#xfd;" horiz-adv-x="556" 
d="M583 519l-288 -551q-21 -40 -34.5 -59t-41 -40t-70 -29t-108.5 -8q-40 0 -92 5l30 156q48 -3 49 -3q20 0 30 1t21.5 5.5t16 16t4.5 29.5l-92 477h200l34 -311h2l133 311h206zM242 574l110 144h209l-187 -144h-132z" />
    <glyph glyph-name="thorn" unicode="&#xfe;" horiz-adv-x="648" 
d="M-53 -168l183 882h198l-52 -254h2q46 72 134 72q52 0 90.5 -20t59 -52.5t30 -68t9.5 -72.5q0 -60 -15 -117.5t-45 -106.5t-80 -78.5t-113 -29.5q-52 0 -89.5 14.5t-65.5 61.5l-48 -231h-198zM331 388q-31 0 -53 -20t-32.5 -50t-14.5 -55.5t-4 -46.5q0 -15 3.5 -31.5
t21.5 -35t47 -18.5q54 0 79 51.5t25 113.5q0 44 -15.5 68t-56.5 24z" />
    <glyph glyph-name="ydieresis" unicode="&#xff;" horiz-adv-x="556" 
d="M583 519l-288 -551q-21 -40 -34.5 -59t-41 -40t-70 -29t-108.5 -8q-40 0 -92 5l30 156q48 -3 49 -3q20 0 30 1t21.5 5.5t16 16t4.5 29.5l-92 477h200l34 -311h2l133 311h206zM334 580l28 133h176l-28 -133h-176zM100 580l28 133h176l-28 -133h-176z" />
    <glyph glyph-name="dotlessi" unicode="&#x131;" horiz-adv-x="315" 
d="M185 0h-198l108 519h198z" />
    <glyph glyph-name="OE" unicode="&#x152;" horiz-adv-x="1130" 
d="M481 0l14 57h-2q-31 -33 -84 -53.5t-103 -20.5q-66 0 -116 18.5t-79.5 48t-48 70.5t-24.5 80.5t-6 84.5q0 88 27 168.5t75.5 142.5t124 98.5t165.5 36.5q53 0 102 -17t77 -51l9 51h541l-36 -183h-337l-18 -89h306l-34 -170h-307l-18 -89h340l-36 -183h-532zM252 278
q0 -52 29 -84.5t81 -32.5q48 0 84.5 24.5t57 64.5t30.5 83.5t10 88.5q0 131 -110 131q-60 0 -103.5 -48t-61 -108t-17.5 -119z" />
    <glyph glyph-name="oe" unicode="&#x153;" horiz-adv-x="963" 
d="M910 215h-374q0 -101 88 -101q21 0 44 10t31 27h190q-59 -164 -265 -164q-69 0 -111 15.5t-81 52.5q-56 -68 -180 -68q-112 0 -177 58.5t-65 179.5q0 131 81.5 219t211.5 88q60 0 104 -13t88 -53l7 6q8 6 23 16t34 20t48 17t59 7q252 0 252 -239q0 -14 -8 -78zM553 318
h180q0 38 -18.5 62.5t-55.5 24.5q-29 0 -49.5 -8.5t-30.5 -22t-15.5 -26t-9.5 -25.5q-1 -3 -1 -5zM314 388q-30 0 -52 -19.5t-33 -48.5t-16 -54.5t-5 -45.5q0 -89 66 -89q31 0 54.5 19.5t34.5 48.5t16 55.5t5 49.5q0 37 -17 60.5t-53 23.5z" />
    <glyph glyph-name="Scaron" unicode="&#x160;" horiz-adv-x="667" 
d="M653 498h-203q1 39 -25 59q-21 16 -64 16q-85 0 -85 -58q0 -19 19 -32t42.5 -19.5t60 -15t55.5 -15.5q166 -59 166 -197q0 -82 -49 -141t-120.5 -85.5t-152.5 -26.5q-87 0 -154.5 25.5t-110 85t-38.5 146.5h213q0 -54 27 -81q21 -18 81 -18q37 0 66.5 18t29.5 51
q0 15 -7 25.5t-26.5 20t-34 14.5t-50 15.5t-54.5 16.5q-79 26 -125 69.5t-46 124.5q0 76 46 131.5t112 79.5t142 24q60 0 110 -12t90.5 -38t63 -72.5t21.5 -110.5zM616 912l-147 -144h-163l-88 144h119l54 -73l81 73h144z" />
    <glyph glyph-name="scaron" unicode="&#x161;" horiz-adv-x="556" 
d="M-16 170h182q0 -32 18 -48q16 -13 52 -13q24 0 38.5 9.5t18 18.5t3.5 18q0 6 -1.5 11t-5.5 9t-8.5 7t-12.5 6t-14 5t-17.5 4t-19 3.5t-22 3.5t-23.5 4q-141 20 -141 134q0 53 22 92t60.5 59.5t81.5 29.5t94 9q37 0 68 -3.5t64 -14t55.5 -28t35.5 -48t10 -70.5h-177
q3 29 -14 41q-15 13 -46 13q-23 0 -39.5 -10.5t-16.5 -31.5q0 -34 45 -39q119 -17 169.5 -50t50.5 -111q0 -90 -71 -141.5t-192 -51.5q-48 0 -87.5 7t-78.5 25.5t-61 56.5t-20 94zM536 718l-147 -144h-163l-88 144h119l54 -73l81 73h144z" />
    <glyph glyph-name="Ydieresis" unicode="&#x178;" horiz-adv-x="667" 
d="M148 0l54 262l-153 452h221l68 -266l174 266h258l-348 -450l-54 -264h-220zM426 774l28 133h176l-28 -133h-176zM192 774l28 133h176l-28 -133h-176z" />
    <glyph glyph-name="Zcaron" unicode="&#x17d;" horiz-adv-x="685" 
d="M-49 0l37 183l398 348h-304l38 183h603l-35 -183l-409 -348h345l-38 -183h-635zM650 912l-147 -144h-163l-88 144h119l54 -73l81 73h144z" />
    <glyph glyph-name="zcaron" unicode="&#x17e;" horiz-adv-x="556" 
d="M-49 0l31 144l287 229v2h-218l31 144h470l-32 -151l-280 -222v-2h254l-30 -144h-513zM554 718l-147 -144h-163l-88 144h119l54 -73l81 73h144z" />
    <glyph glyph-name="florin" unicode="&#x192;" horiz-adv-x="668" 
d="M3 -176l39 142q12 -3 22 -3q39 0 55.5 18t28.5 61l64 237h-95l34 122h95l32 119q28 104 82 157.5t153 53.5q55 0 112 -6l-38 -141q-21 3 -41 3q-49 0 -63 -47l-34 -139h95l-34 -122h-94l-73 -268q-30 -110 -87.5 -151t-174.5 -41q-33 0 -78 5z" />
    <glyph glyph-name="circumflex" unicode="&#x2c6;" horiz-adv-x="278" 
d="M-16 574l147 144h163l88 -144h-119l-54 74l-81 -74h-144z" />
    <glyph glyph-name="caron" unicode="&#x2c7;" horiz-adv-x="278" 
d="M422 718l-147 -144h-163l-88 144h119l54 -73l81 73h144z" />
    <glyph glyph-name="ring" unicode="&#x2da;" horiz-adv-x="278" 
d="M87 666q0 46 33 78t79 32t79 -32t33 -78q0 -47 -32.5 -77t-79.5 -30t-79.5 30t-32.5 77zM147 666q0 -22 15.5 -37t36.5 -15q22 0 37 15t15 37t-15 37t-37 15q-21 0 -36.5 -15t-15.5 -37z" />
    <glyph glyph-name="tilde" unicode="&#x2dc;" horiz-adv-x="278" 
d="M314 718h80q-7 -67 -39 -104.5t-86 -37.5q-35 0 -77 20q-7 3 -21 10t-24.5 10.5t-20.5 3.5q-15 0 -26.5 -15t-14.5 -31h-82q2 55 37.5 97.5t89.5 42.5q35 0 79 -20q52 -24 63 -24q25 0 42 48z" />
    <glyph glyph-name="endash" unicode="&#x2013;" horiz-adv-x="500" 
d="M-32 188l32 158h500l-32 -158h-500z" />
    <glyph glyph-name="emdash" unicode="&#x2014;" horiz-adv-x="1000" 
d="M98 188l32 158h740l-32 -158h-740z" />
    <glyph glyph-name="quoteleft" unicode="&#x2018;" horiz-adv-x="296" 
d="M276 533l-42 -198h-179l30 147q10 52 23 87.5t38 70.5t67 53.5t102 20.5l-18 -87q-86 -8 -99 -94h78z" />
    <glyph glyph-name="quoteright" unicode="&#x2019;" horiz-adv-x="296" 
d="M94 516l42 198h179l-30 -148q-10 -52 -23 -87t-38 -70t-67 -53.5t-102 -20.5l18 87q87 8 99 94h-78z" />
    <glyph glyph-name="quotesinglbase" unicode="&#x201a;" horiz-adv-x="296" 
d="M-25 0l42 198h179l-30 -148q-10 -52 -23 -87t-38 -70t-67 -53.5t-102 -20.5l18 87q86 8 99 94h-78z" />
    <glyph glyph-name="quotedblleft" unicode="&#x201c;" horiz-adv-x="519" 
d="M506 533l-42 -198h-179l30 147q10 52 23 87.5t38 70.5t67 53.5t102 20.5l-18 -87q-86 -8 -99 -94h78zM264 533l-42 -198h-179l30 147q10 52 23 87.5t38 70.5t67 53.5t102 20.5l-18 -87q-86 -8 -99 -94h78z" />
    <glyph glyph-name="quotedblright" unicode="&#x201d;" horiz-adv-x="519" 
d="M324 516l42 198h179l-30 -148q-10 -52 -23 -87t-38 -70t-67 -53.5t-102 -20.5l18 87q87 8 99 94h-78zM82 516l42 198h179l-30 -148q-10 -52 -23 -87t-38 -70t-67 -53.5t-102 -20.5l18 87q87 8 99 94h-78z" />
    <glyph glyph-name="quotedblbase" unicode="&#x201e;" horiz-adv-x="519" 
d="M217 0l42 198h179l-30 -148q-10 -52 -23 -87t-38 -70t-67 -53.5t-102 -20.5l18 87q86 8 99 94h-78zM-25 0l42 198h179l-30 -148q-10 -52 -23 -87t-38 -70t-67 -53.5t-102 -20.5l18 87q86 8 99 94h-78z" />
    <glyph glyph-name="dagger" unicode="&#x2020;" horiz-adv-x="667" 
d="M130 -174l113 545h-176l33 158h176l38 185h192l-38 -185h176l-33 -158h-176l-113 -545h-192z" />
    <glyph glyph-name="daggerdbl" unicode="&#x2021;" horiz-adv-x="667" 
d="M130 -174l39 187h-176l33 158h175l42 200h-176l33 158h176l38 185h192l-38 -185h176l-33 -158h-176l-42 -200h177l-33 -158h-176l-39 -187h-192z" />
    <glyph glyph-name="bullet" unicode="&#x2022;" horiz-adv-x="500" 
d="M75 357q0 74 52 126t126 52t126.5 -52t52.5 -126t-52.5 -126.5t-126.5 -52.5t-126 52.5t-52 126.5z" />
    <glyph glyph-name="ellipsis" unicode="&#x2026;" horiz-adv-x="1000" 
d="M864 0h-204l41 198h204zM530 0h-204l41 198h204zM196 0h-204l41 198h204z" />
    <glyph glyph-name="perthousand" unicode="&#x2030;" horiz-adv-x="1167" 
d="M100 -26l482 748h126l-482 -748h-126zM65 492q0 86 44 149t126 63q61 0 96.5 -33t35.5 -94q0 -88 -43 -156t-126 -68q-65 0 -99 37.5t-34 101.5zM168 475q0 -17 7.5 -31t23.5 -14q31 0 48 56t17 96q0 45 -31 45q-29 0 -47 -57.5t-18 -94.5zM800 131q0 86 44 149t126 63
q61 0 96.5 -33t35.5 -94q0 -88 -43 -156t-126 -68q-65 0 -99 37.5t-34 101.5zM444 131q0 86 44 149t126 63q61 0 96.5 -33t35.5 -94q0 -88 -43 -156t-126 -68q-65 0 -99 37.5t-34 101.5zM903 114q0 -17 7.5 -31t23.5 -14q31 0 48 56t17 96q0 45 -31 45q-29 0 -47 -57.5
t-18 -94.5zM547 114q0 -17 7.5 -31t23.5 -14q31 0 48 56t17 96q0 45 -31 45q-29 0 -47 -57.5t-18 -94.5z" />
    <glyph glyph-name="guilsinglleft" unicode="&#x2039;" horiz-adv-x="241" 
d="M138 50l-131 140l35 167l188 128l-33 -156l-100 -69l70 -75z" />
    <glyph glyph-name="guilsinglright" unicode="&#x203a;" horiz-adv-x="241" 
d="M69 485l131 -140l-35 -167l-188 -128l33 156l100 69l-70 75z" />
    <glyph glyph-name="Euro" unicode="&#x20ac;" horiz-adv-x="668" 
d="M706 644l-86 -135q-63 48 -127 48q-97 0 -141 -95h247l-51 -86h-222l-6 -49h206l-52 -86h-146q31 -94 133 -94q43 0 78 13.5t80 42.5l-37 -195q-99 -23 -164 -23q-271 0 -304 256h-87l51 86h33l5 49h-66l51 86h35q39 121 127 191t212 70q129 0 231 -79z" />
    <glyph glyph-name="trademark" unicode="&#x2122;" horiz-adv-x="1000" 
d="M466 302v412h172l80 -239h2l80 239h172v-412h-122v230h-2l-77 -230h-104l-77 230h-2v-230h-122zM379 714v-94h-105v-318h-133v318h-105v94h343z" />
    </font>
</defs>
</svg>
